<mxfile host="www.draw.io" modified="2019-10-29T09:28:45.704Z" agent="Mozilla/5.0 (Windows NT 10.0; Win64; x64) AppleWebKit/537.36 (KHTML, like Gecko) Chrome/77.0.3865.120 Safari/537.36" etag="wVHsv6ZNVR7MTjnAPllj" version="12.1.8" type="github" pages="1">
  <diagram id="yO-j4YD6B-iH5MxbXJUr" name="Page-1">
    <mxGraphModel dx="1233" dy="779" grid="1" gridSize="10" guides="1" tooltips="1" connect="1" arrows="1" fold="1" page="1" pageScale="1" pageWidth="850" pageHeight="1100" math="0" shadow="0">
      <root>
        <mxCell id="0"/>
        <mxCell id="1" parent="0"/>
        <mxCell id="qzPQkFgWqkO7X8iyA3fW-1" value="" style="rounded=0;whiteSpace=wrap;html=1;strokeColor=#666666;fillColor=#f5f5f5;fontColor=#333333;" vertex="1" parent="1">
          <mxGeometry x="110" y="450" width="630" height="120" as="geometry"/>
        </mxCell>
        <mxCell id="qzPQkFgWqkO7X8iyA3fW-2" value="" style="rounded=0;whiteSpace=wrap;html=1;strokeColor=#666666;fillColor=#f5f5f5;fontColor=#333333;" vertex="1" parent="1">
          <mxGeometry x="110" y="310" width="630" height="100" as="geometry"/>
        </mxCell>
        <mxCell id="qzPQkFgWqkO7X8iyA3fW-6" value="" style="endArrow=none;dashed=1;html=1;strokeColor=#808080;strokeWidth=2;" edge="1" parent="1">
          <mxGeometry width="50" height="50" relative="1" as="geometry">
            <mxPoint x="60" y="280" as="sourcePoint"/>
            <mxPoint x="820" y="280" as="targetPoint"/>
          </mxGeometry>
        </mxCell>
        <mxCell id="qzPQkFgWqkO7X8iyA3fW-7" value="" style="endArrow=none;dashed=1;html=1;strokeColor=#808080;strokeWidth=2;" edge="1" parent="1">
          <mxGeometry width="50" height="50" relative="1" as="geometry">
            <mxPoint x="60" y="630" as="sourcePoint"/>
            <mxPoint x="820" y="630" as="targetPoint"/>
          </mxGeometry>
        </mxCell>
        <mxCell id="qzPQkFgWqkO7X8iyA3fW-8" style="edgeStyle=orthogonalEdgeStyle;curved=1;rounded=0;orthogonalLoop=1;jettySize=auto;html=1;fillColor=#dae8fc;strokeColor=#6c8ebf;" edge="1" parent="1" source="qzPQkFgWqkO7X8iyA3fW-9" target="qzPQkFgWqkO7X8iyA3fW-13">
          <mxGeometry relative="1" as="geometry"/>
        </mxCell>
        <mxCell id="qzPQkFgWqkO7X8iyA3fW-9" value="E-margin" style="rounded=1;whiteSpace=wrap;html=1;fillColor=#dae8fc;strokeColor=#6c8ebf;" vertex="1" parent="1">
          <mxGeometry x="528" y="192.5" width="120" height="60" as="geometry"/>
        </mxCell>
        <mxCell id="qzPQkFgWqkO7X8iyA3fW-13" value="FNBridge&lt;br&gt;&lt;font style=&quot;font-size: 7px&quot; color=&quot;#666666&quot;&gt;(&lt;span&gt;TransferInsuranceBookingEndPoint&lt;/span&gt;&lt;span&gt;)&lt;/span&gt;&lt;/font&gt;&lt;br&gt;" style="rounded=0;whiteSpace=wrap;html=1;fillColor=#dae8fc;strokeColor=#6c8ebf;" vertex="1" parent="1">
          <mxGeometry x="528" y="337" width="120" height="40" as="geometry"/>
        </mxCell>
        <mxCell id="qzPQkFgWqkO7X8iyA3fW-17" value="Check In Policy Schedule Job" style="rounded=0;whiteSpace=wrap;html=1;fillColor=#dae8fc;strokeColor=#6c8ebf;" vertex="1" parent="1">
          <mxGeometry x="530" y="460" width="120" height="40" as="geometry"/>
        </mxCell>
        <mxCell id="qzPQkFgWqkO7X8iyA3fW-18" value="" style="shape=mxgraph.bpmn.shape;html=1;verticalLabelPosition=bottom;labelBackgroundColor=#ffffff;verticalAlign=top;align=center;perimeter=ellipsePerimeter;outlineConnect=0;outline=standard;symbol=timer;fillColor=#dae8fc;strokeColor=#6c8ebf;" vertex="1" parent="1">
          <mxGeometry x="510" y="466.5" width="30" height="30" as="geometry"/>
        </mxCell>
        <mxCell id="qzPQkFgWqkO7X8iyA3fW-19" style="edgeStyle=orthogonalEdgeStyle;curved=1;rounded=0;orthogonalLoop=1;jettySize=auto;html=1;fillColor=#dae8fc;strokeColor=#6c8ebf;entryX=0;entryY=0.5;entryDx=0;entryDy=0;strokeWidth=2;" edge="1" parent="1" source="qzPQkFgWqkO7X8iyA3fW-20" target="qzPQkFgWqkO7X8iyA3fW-18">
          <mxGeometry relative="1" as="geometry">
            <Array as="points">
              <mxPoint x="410" y="481"/>
            </Array>
            <mxPoint x="510" y="481" as="targetPoint"/>
          </mxGeometry>
        </mxCell>
        <mxCell id="qzPQkFgWqkO7X8iyA3fW-20" value="MO_POLICY" style="strokeWidth=1;html=1;shape=mxgraph.flowchart.database;whiteSpace=wrap;fontSize=10;fontStyle=1" vertex="1" parent="1">
          <mxGeometry x="357.5" y="356.5" width="80" height="47" as="geometry"/>
        </mxCell>
        <mxCell id="qzPQkFgWqkO7X8iyA3fW-21" value="AZ" style="rounded=0;whiteSpace=wrap;html=1;strokeWidth=1;" vertex="1" parent="1">
          <mxGeometry x="365" y="660" width="80" height="40" as="geometry"/>
        </mxCell>
        <mxCell id="qzPQkFgWqkO7X8iyA3fW-22" value="POLICY" style="strokeWidth=1;html=1;shape=mxgraph.flowchart.database;whiteSpace=wrap;fontSize=10;fontStyle=1" vertex="1" parent="1">
          <mxGeometry x="365" y="496.5" width="80" height="47" as="geometry"/>
        </mxCell>
        <mxCell id="qzPQkFgWqkO7X8iyA3fW-25" style="edgeStyle=orthogonalEdgeStyle;curved=1;rounded=0;orthogonalLoop=1;jettySize=auto;html=1;entryX=1;entryY=0.5;entryDx=0;entryDy=0;fillColor=#dae8fc;strokeColor=#6c8ebf;exitX=0.5;exitY=1;exitDx=0;exitDy=0;" edge="1" parent="1" source="qzPQkFgWqkO7X8iyA3fW-26" target="qzPQkFgWqkO7X8iyA3fW-21">
          <mxGeometry relative="1" as="geometry">
            <Array as="points">
              <mxPoint x="560" y="620"/>
              <mxPoint x="560" y="680"/>
            </Array>
          </mxGeometry>
        </mxCell>
        <mxCell id="qzPQkFgWqkO7X8iyA3fW-26" value="" style="shape=mxgraph.bpmn.shape;html=1;verticalLabelPosition=bottom;labelBackgroundColor=#ffffff;verticalAlign=top;align=center;perimeter=ellipsePerimeter;outlineConnect=0;outline=standard;symbol=timer;fillColor=#dae8fc;strokeColor=#6c8ebf;" vertex="1" parent="1">
          <mxGeometry x="558" y="590" width="30" height="30" as="geometry"/>
        </mxCell>
        <mxCell id="qzPQkFgWqkO7X8iyA3fW-27" value="Kettle Daily Job" style="text;html=1;resizable=0;points=[];autosize=1;align=left;verticalAlign=top;spacingTop=-4;fillColor=#dae8fc;strokeColor=#6c8ebf;" vertex="1" parent="1">
          <mxGeometry x="588" y="595" width="100" height="20" as="geometry"/>
        </mxCell>
        <mxCell id="qzPQkFgWqkO7X8iyA3fW-29" value="" style="endArrow=classic;html=1;entryX=1;entryY=0.5;entryDx=0;entryDy=0;entryPerimeter=0;exitX=0;exitY=0.5;exitDx=0;exitDy=0;edgeStyle=orthogonalEdgeStyle;curved=1;fillColor=#dae8fc;strokeColor=#6c8ebf;dashed=1;" edge="1" parent="1" source="qzPQkFgWqkO7X8iyA3fW-13" target="qzPQkFgWqkO7X8iyA3fW-20">
          <mxGeometry width="50" height="50" relative="1" as="geometry">
            <mxPoint x="520" y="300" as="sourcePoint"/>
            <mxPoint x="500" y="340" as="targetPoint"/>
            <Array as="points">
              <mxPoint x="528" y="380"/>
            </Array>
          </mxGeometry>
        </mxCell>
        <mxCell id="qzPQkFgWqkO7X8iyA3fW-31" value="" style="endArrow=classic;html=1;entryX=1;entryY=0.5;entryDx=0;entryDy=0;entryPerimeter=0;edgeStyle=orthogonalEdgeStyle;curved=1;fillColor=#dae8fc;strokeColor=#6c8ebf;dashed=1;" edge="1" parent="1" source="qzPQkFgWqkO7X8iyA3fW-18" target="qzPQkFgWqkO7X8iyA3fW-22">
          <mxGeometry width="50" height="50" relative="1" as="geometry">
            <mxPoint x="460" y="560" as="sourcePoint"/>
            <mxPoint x="510" y="510" as="targetPoint"/>
            <Array as="points">
              <mxPoint x="520" y="520"/>
            </Array>
          </mxGeometry>
        </mxCell>
        <mxCell id="qzPQkFgWqkO7X8iyA3fW-36" value="" style="shadow=0;dashed=0;html=1;strokeColor=#6c8ebf;labelPosition=center;verticalLabelPosition=bottom;verticalAlign=top;align=center;shape=mxgraph.mscae.enterprise.document;fillColor=#dae8fc;" vertex="1" parent="1">
          <mxGeometry x="492.5" y="647.5" width="20" height="25" as="geometry"/>
        </mxCell>
        <mxCell id="qzPQkFgWqkO7X8iyA3fW-37" value="&amp;nbsp; &amp;nbsp;Generate report daily Job" style="rounded=0;whiteSpace=wrap;html=1;fillColor=#dae8fc;strokeColor=#6c8ebf;" vertex="1" parent="1">
          <mxGeometry x="530" y="520" width="120" height="40" as="geometry"/>
        </mxCell>
        <mxCell id="qzPQkFgWqkO7X8iyA3fW-38" value="" style="endArrow=classic;html=1;exitX=0.883;exitY=0.925;exitDx=0;exitDy=0;exitPerimeter=0;edgeStyle=orthogonalEdgeStyle;curved=1;dashed=1;fillColor=#dae8fc;strokeColor=#6c8ebf;" edge="1" parent="1" source="qzPQkFgWqkO7X8iyA3fW-22" target="qzPQkFgWqkO7X8iyA3fW-39">
          <mxGeometry width="50" height="50" relative="1" as="geometry">
            <mxPoint x="460" y="590" as="sourcePoint"/>
            <mxPoint x="510" y="540" as="targetPoint"/>
            <Array as="points">
              <mxPoint x="436" y="550"/>
            </Array>
          </mxGeometry>
        </mxCell>
        <mxCell id="qzPQkFgWqkO7X8iyA3fW-39" value="" style="shape=mxgraph.bpmn.shape;html=1;verticalLabelPosition=bottom;labelBackgroundColor=#ffffff;verticalAlign=top;align=center;perimeter=ellipsePerimeter;outlineConnect=0;outline=standard;symbol=timer;fillColor=#dae8fc;strokeColor=#6c8ebf;" vertex="1" parent="1">
          <mxGeometry x="512.5" y="525" width="30" height="30" as="geometry"/>
        </mxCell>
        <mxCell id="qzPQkFgWqkO7X8iyA3fW-40" value="" style="verticalLabelPosition=bottom;html=1;verticalAlign=top;align=center;strokeColor=#6c8ebf;fillColor=#dae8fc;shape=mxgraph.azure.sql_reporting;" vertex="1" parent="1">
          <mxGeometry x="696" y="525" width="28" height="35" as="geometry"/>
        </mxCell>
        <mxCell id="qzPQkFgWqkO7X8iyA3fW-41" value="" style="endArrow=classic;html=1;dashed=1;entryX=0;entryY=0.5;entryDx=0;entryDy=0;entryPerimeter=0;fillColor=#dae8fc;strokeColor=#6c8ebf;" edge="1" parent="1" target="qzPQkFgWqkO7X8iyA3fW-40">
          <mxGeometry width="50" height="50" relative="1" as="geometry">
            <mxPoint x="650" y="543" as="sourcePoint"/>
            <mxPoint x="690" y="540" as="targetPoint"/>
          </mxGeometry>
        </mxCell>
        <mxCell id="qzPQkFgWqkO7X8iyA3fW-42" value="" style="endArrow=classic;html=1;dashed=1;exitX=0.5;exitY=1;exitDx=0;exitDy=0;exitPerimeter=0;edgeStyle=orthogonalEdgeStyle;curved=1;fillColor=#dae8fc;strokeColor=#6c8ebf;" edge="1" parent="1" source="qzPQkFgWqkO7X8iyA3fW-40" target="qzPQkFgWqkO7X8iyA3fW-27">
          <mxGeometry width="50" height="50" relative="1" as="geometry">
            <mxPoint x="700" y="710" as="sourcePoint"/>
            <mxPoint x="700" y="610" as="targetPoint"/>
            <Array as="points">
              <mxPoint x="710" y="548"/>
              <mxPoint x="720" y="548"/>
              <mxPoint x="720" y="606"/>
            </Array>
          </mxGeometry>
        </mxCell>
      </root>
    </mxGraphModel>
  </diagram>
</mxfile>
